<svg width="10" height="10" viewBox="0 0 10 10" fill="none" xmlns="http://www.w3.org/2000/svg">
<path d="M3.34476 8.05198C3.34476 8.09334 3.29839 8.12643 3.23992 8.12643C3.17339 8.13263 3.12702 8.09954 3.12702 8.05198C3.12702 8.01063 3.17339 7.97754 3.23185 7.97754C3.29234 7.97134 3.34476 8.00443 3.34476 8.05198ZM2.71774 7.95893C2.70363 8.00029 2.74395 8.04785 2.80444 8.06026C2.85685 8.08093 2.91734 8.06026 2.92944 8.0189C2.94153 7.97754 2.90323 7.92999 2.84274 7.91138C2.79032 7.8969 2.73185 7.91758 2.71774 7.95893ZM3.60887 7.92378C3.5504 7.93826 3.51008 7.97754 3.51613 8.0251C3.52218 8.06646 3.5746 8.09334 3.63508 8.07887C3.69355 8.06439 3.73387 8.0251 3.72782 7.98375C3.72177 7.94446 3.66734 7.91758 3.60887 7.92378ZM4.93548 0C2.13911 0 0 2.17739 0 5.04541C0 7.3386 1.40726 9.30093 3.41734 9.99158C3.6754 10.0391 3.76613 9.87578 3.76613 9.74137C3.76613 9.61317 3.76008 8.90598 3.76008 8.47175C3.76008 8.47175 2.34879 8.78192 2.05242 7.85554C2.05242 7.85554 1.82258 7.25382 1.49194 7.09873C1.49194 7.09873 1.03024 6.77409 1.52419 6.78029C1.52419 6.78029 2.02621 6.82165 2.30242 7.31378C2.74395 8.11195 3.48387 7.88243 3.77218 7.74595C3.81855 7.4151 3.9496 7.18558 4.09476 7.04911C2.96774 6.9209 1.83065 6.75341 1.83065 4.76419C1.83065 4.19555 1.98387 3.9102 2.30645 3.54626C2.25403 3.41186 2.08266 2.85769 2.35887 2.14223C2.78024 2.00783 3.75 2.70054 3.75 2.70054C4.15323 2.58474 4.58669 2.52478 5.01613 2.52478C5.44556 2.52478 5.87903 2.58474 6.28226 2.70054C6.28226 2.70054 7.25202 2.00576 7.67339 2.14223C7.9496 2.85976 7.77823 3.41186 7.72581 3.54626C8.04839 3.91226 8.24597 4.19762 8.24597 4.76419C8.24597 6.75961 7.05847 6.91883 5.93145 7.04911C6.11694 7.21246 6.27419 7.52263 6.27419 8.00856C6.27419 8.70541 6.26815 9.56768 6.26815 9.73724C6.26815 9.87164 6.36089 10.035 6.61694 9.98744C8.63306 9.30093 10 7.3386 10 5.04541C10 2.17739 7.73185 0 4.93548 0ZM1.95968 7.13182C1.93347 7.15249 1.93952 7.20005 1.97379 7.23934C2.00605 7.27243 2.05242 7.2869 2.07863 7.26002C2.10484 7.23934 2.09879 7.19178 2.06452 7.15249C2.03226 7.11941 1.98589 7.10494 1.95968 7.13182ZM1.74194 6.96433C1.72782 6.99121 1.74798 7.02429 1.78831 7.04497C1.82056 7.06565 1.86089 7.05944 1.875 7.0305C1.88911 7.00361 1.86895 6.97053 1.82863 6.94985C1.78831 6.93745 1.75605 6.94365 1.74194 6.96433ZM2.39516 7.70046C2.3629 7.72734 2.375 7.78938 2.42137 7.82866C2.46774 7.87622 2.52621 7.88243 2.55242 7.84934C2.57863 7.82246 2.56653 7.76043 2.52621 7.72114C2.48185 7.67358 2.42137 7.66738 2.39516 7.70046ZM2.16532 7.39649C2.13306 7.41717 2.13306 7.47094 2.16532 7.51849C2.19758 7.56605 2.25202 7.58673 2.27823 7.56605C2.31048 7.53917 2.31048 7.48541 2.27823 7.43785C2.25 7.39029 2.19758 7.36961 2.16532 7.39649Z" fill="black"/>
</svg>
