<svg width="29" height="12" viewBox="0 0 29 12" fill="none" xmlns="http://www.w3.org/2000/svg">
<path d="M2.928 3.564C2.584 3.564 2.36 3.796 2.256 4.26C2.16 4.716 2.112 5.264 2.112 5.904V9H0.792V2.88L1.896 2.736L1.956 3.816C2.068 3.456 2.264 3.172 2.544 2.964C2.824 2.748 3.148 2.64 3.516 2.64C3.916 2.64 4.232 2.756 4.464 2.988C4.704 3.22 4.824 3.536 4.824 3.936C4.824 4.584 4.512 4.908 3.888 4.908C3.68 4.908 3.52 4.864 3.408 4.776C3.464 4.568 3.492 4.388 3.492 4.236C3.492 3.788 3.304 3.564 2.928 3.564ZM7.74638 2.64C8.64238 2.64 9.30638 2.932 9.73838 3.516C10.1704 4.092 10.3864 4.872 10.3864 5.856C10.3864 6.904 10.1784 7.736 9.76238 8.352C9.34638 8.96 8.67438 9.264 7.74638 9.264C6.83438 9.264 6.16638 8.972 5.74238 8.388C5.32638 7.804 5.11838 7 5.11838 5.976C5.11838 4.984 5.33438 4.18 5.76638 3.564C6.19838 2.948 6.85838 2.64 7.74638 2.64ZM7.74638 8.544C8.24238 8.544 8.56638 8.3 8.71838 7.812C8.87038 7.324 8.94638 6.692 8.94638 5.916C8.94638 5.204 8.86238 4.6 8.69438 4.104C8.53438 3.608 8.21838 3.36 7.74638 3.36C6.95438 3.36 6.55838 4.212 6.55838 5.916C6.55838 6.692 6.63038 7.324 6.77438 7.812C6.92638 8.3 7.25038 8.544 7.74638 8.544ZM15.4255 7.308C15.6095 7.396 15.7015 7.568 15.7015 7.824C15.7015 8.112 15.6055 8.368 15.4135 8.592C15.2215 8.808 14.9735 8.972 14.6695 9.084C14.3655 9.204 14.0575 9.264 13.7455 9.264C12.8655 9.264 12.2135 8.98 11.7895 8.412C11.3655 7.836 11.1535 7.064 11.1535 6.096C11.1535 5.064 11.3815 4.232 11.8375 3.6C12.3015 2.96 13.0015 2.64 13.9375 2.64C14.5295 2.64 15.0055 2.796 15.3655 3.108C15.7255 3.412 15.9055 3.844 15.9055 4.404C15.9055 5.1 15.6615 5.588 15.1735 5.868C14.6935 6.148 14.0375 6.288 13.2055 6.288C12.9735 6.288 12.7535 6.28 12.5455 6.264C12.5695 6.896 12.6735 7.4 12.8575 7.776C13.0495 8.152 13.3855 8.34 13.8655 8.34C14.2175 8.34 14.5255 8.252 14.7895 8.076C15.0615 7.892 15.2735 7.636 15.4255 7.308ZM13.7455 3.324C13.3135 3.324 13.0095 3.552 12.8335 4.008C12.6575 4.456 12.5615 5.008 12.5455 5.664C12.7855 5.68 12.9615 5.688 13.0735 5.688C14.0815 5.688 14.5855 5.284 14.5855 4.476C14.5855 4.148 14.5135 3.876 14.3695 3.66C14.2335 3.436 14.0255 3.324 13.7455 3.324ZM18.4016 0.456V8.016C18.4016 8.408 18.5256 8.672 18.7736 8.808C18.7096 8.928 18.6016 9.02 18.4496 9.084C18.3056 9.148 18.1536 9.18 17.9936 9.18C17.6896 9.18 17.4616 9.092 17.3096 8.916C17.1576 8.74 17.0816 8.492 17.0816 8.172V0.599999L18.4016 0.456ZM24.7251 8.016C24.7251 8.408 24.8491 8.672 25.0971 8.808C25.0331 8.928 24.9371 9.02 24.8091 9.084C24.6891 9.148 24.5491 9.18 24.3891 9.18C24.1571 9.18 23.9651 9.116 23.8131 8.988C23.6611 8.852 23.5691 8.672 23.5371 8.448C23.4091 8.712 23.2011 8.912 22.9131 9.048C22.6331 9.192 22.3291 9.264 22.0011 9.264C21.1851 9.264 20.5931 8.952 20.2251 8.328C19.8571 7.704 19.6731 6.904 19.6731 5.928C19.6731 4.92 19.8891 4.12 20.3211 3.528C20.7611 2.936 21.4411 2.64 22.3611 2.64C22.7451 2.64 23.0931 2.692 23.4051 2.796V0.599999L24.7251 0.456V8.016ZM23.4051 3.732C23.0371 3.484 22.6691 3.36 22.3011 3.36C21.8131 3.36 21.4931 3.592 21.3411 4.056C21.1891 4.52 21.1131 5.124 21.1131 5.868C21.1131 6.58 21.2011 7.192 21.3771 7.704C21.5531 8.208 21.8771 8.46 22.3491 8.46C22.7011 8.46 22.9651 8.328 23.1411 8.064C23.3171 7.792 23.4051 7.456 23.4051 7.056V3.732ZM27.1292 0.36C27.3932 0.36 27.6052 0.424 27.7652 0.551999C27.9332 0.68 28.0172 0.864 28.0172 1.104C28.0172 1.352 27.9292 1.544 27.7532 1.68C27.5852 1.808 27.3652 1.872 27.0932 1.872C26.8292 1.872 26.6172 1.808 26.4572 1.68C26.2972 1.552 26.2172 1.368 26.2172 1.128C26.2172 0.88 26.3012 0.692 26.4692 0.564C26.6452 0.428 26.8652 0.36 27.1292 0.36ZM27.7892 8.58C27.7892 10.46 27.2292 11.4 26.1092 11.4C25.8852 11.4 25.6892 11.356 25.5212 11.268C25.3532 11.18 25.2692 11.048 25.2692 10.872C25.7172 10.872 26.0252 10.692 26.1932 10.332C26.3692 9.972 26.4572 9.5 26.4572 8.916V2.88H27.7892V8.58Z" fill="#F06C21"/>
</svg>
